<svg xmlns="http://www.w3.org/2000/svg" viewBox="0 0 100 100" role="img" aria-label="ASR Studio">
  <defs>
    <linearGradient id="bar" x1="12" y1="14" x2="88" y2="86" gradientUnits="userSpaceOnUse">
      <stop offset="0" stop-color="#02E3FF"/>
      <stop offset="0.45" stop-color="#0290FC"/>
      <stop offset="1" stop-color="#0F68EF"/>
    </linearGradient>
    <clipPath id="round">
      <rect x="2" y="2" width="96" height="96" rx="28" ry="28"/>
    </clipPath>
  </defs>
  <!-- transparent outside; white rounded body -->
  <rect x="2" y="2" width="96" height="96" rx="28" ry="28" fill="#ffffff"/>
  <g fill="url(#bar)" clip-path="url(#round)">
    <rect x="16.72" y="44.00" width="4.72" height="12.80" rx="0.9"/>
    <rect x="24.40" y="39.52" width="4.80" height="21.44" rx="0.9"/>
    <rect x="32.08" y="29.92" width="4.96" height="41.60" rx="0.9"/>
    <rect x="39.92" y="39.52" width="4.80" height="21.52" rx="0.9"/>
    <rect x="47.60" y="42.00" width="4.88" height="23.20" rx="0.9"/>
    <rect x="55.20" y="33.04" width="4.96" height="44.32" rx="0.9"/>
    <rect x="62.96" y="20.24" width="4.96" height="49.28" rx="0.9"/>
    <rect x="70.72" y="29.12" width="4.96" height="31.76" rx="0.9"/>
    <rect x="78.48" y="25.44" width="4.96" height="27.28" rx="0.9"/>
  </g>
</svg>
